<svg xmlns="http://www.w3.org/2000/svg" viewBox="0 0 443 496" width="443" height="496" style="--bg:#ffffff;--fg:#1f2328;--line:#d1d9e0;--accent:#0969da;--muted:#59636e;background:var(--bg)">
<style>
  @import url('https://fonts.googleapis.com/css2?family=Inter:wght@400;500;600;700&amp;display=swap');
  text { font-family: 'Inter', system-ui, sans-serif; }
  svg {
    /* Derived from --bg and --fg (overridable via --line, --accent, etc.) */
    --_text:          var(--fg);
    --_text-sec:      var(--muted, color-mix(in srgb, var(--fg) 60%, var(--bg)));
    --_text-muted:    var(--muted, color-mix(in srgb, var(--fg) 40%, var(--bg)));
    --_text-faint:    color-mix(in srgb, var(--fg) 25%, var(--bg));
    --_line:          var(--line, color-mix(in srgb, var(--fg) 30%, var(--bg)));
    --_arrow:         var(--accent, color-mix(in srgb, var(--fg) 50%, var(--bg)));
    --_node-fill:     var(--surface, color-mix(in srgb, var(--fg) 3%, var(--bg)));
    --_node-stroke:   var(--border, color-mix(in srgb, var(--fg) 20%, var(--bg)));
    --_group-fill:    var(--bg);
    --_group-hdr:     color-mix(in srgb, var(--fg) 5%, var(--bg));
    --_inner-stroke:  color-mix(in srgb, var(--fg) 12%, var(--bg));
    --_key-badge:     color-mix(in srgb, var(--fg) 10%, var(--bg));
  }
</style>
<defs>
  <marker id="arrowhead" markerWidth="8" markerHeight="4.8" refX="8" refY="2.4" orient="auto">
    <polygon points="0 0, 8 2.4, 0 4.8" fill="var(--_arrow)" />
  </marker>
  <marker id="arrowhead-start" markerWidth="8" markerHeight="4.8" refX="0" refY="2.4" orient="auto-start-reverse">
    <polygon points="8 0, 0 2.4, 8 4.8" fill="var(--_arrow)" />
  </marker>
</defs>
<polyline points="70,304 70,362 198.8125,362" fill="none" stroke="var(--_line)" stroke-width="0.75" marker-end="url(#arrowhead)" />
<polyline points="239.8375,344 239.8375,324 425,324 425,58 313.1,58" fill="none" stroke="var(--_line)" stroke-width="0.75" marker-end="url(#arrowhead)" />
<polyline points="239.8375,380 239.8375,400 200.11249999999998,400 200.11249999999998,438 158.36249999999998,438" fill="none" stroke="var(--_line)" stroke-width="0.75" marker-end="url(#arrowhead)" />
<polyline points="239.8375,380 239.8375,400 326.88750000000005,400 326.88750000000005,420" fill="none" stroke="var(--_line)" stroke-width="0.75" marker-end="url(#arrowhead)" />
<polyline points="272.075,76 272.075,96 161.45,96 161.45,116" fill="none" stroke="var(--_line)" stroke-width="0.75" marker-end="url(#arrowhead)" />
<polyline points="272.075,76 272.075,96 355.55,96 355.55,210 328.1,210" fill="none" stroke="var(--_line)" stroke-width="0.75" marker-end="url(#arrowhead)" />
<polyline points="272.075,76 272.075,96 285.375,96 285.375,116" fill="none" stroke="var(--_line)" stroke-width="0.75" marker-end="url(#arrowhead)" />
<polyline points="161.45,152 161.45,192" fill="none" stroke="var(--_line)" stroke-width="0.75" marker-end="url(#arrowhead)" />
<polyline points="161.45,152 161.45,172 385.275,172 385.275,210 403,210" fill="none" stroke="var(--_line)" stroke-width="0.75" marker-end="url(#arrowhead)" />
<polyline points="161.45,228 161.45,268" fill="none" stroke="var(--_line)" stroke-width="0.75" marker-end="url(#arrowhead)" />
<polyline points="161.45,304 161.45,362 198.8125,362" fill="none" stroke="var(--_line)" stroke-width="0.75" marker-end="url(#arrowhead)" />
<polyline points="210.11249999999998,420 210.11249999999998,400 258.5,400 258.5,362 280.8625,362" fill="none" stroke="var(--_line)" stroke-width="0.75" marker-end="url(#arrowhead)" />
<polyline points="365.55,228 365.55,362 280.8625,362" fill="none" stroke="var(--_line)" stroke-width="0.75" marker-end="url(#arrowhead)" />
<circle cx="70" cy="286" r="16" fill="var(--_text)" stroke="none" />
<rect x="198.8125" y="344" width="82.05000000000001" height="36" rx="6" ry="6" fill="var(--_node-fill)" stroke="var(--_node-stroke)" stroke-width="0.75" />
<rect x="231.04999999999998" y="40" width="82.05000000000001" height="36" rx="6" ry="6" fill="var(--_node-fill)" stroke="var(--_node-stroke)" stroke-width="0.75" />
<rect x="158.36249999999998" y="420" width="103.5" height="36" rx="6" ry="6" fill="var(--_node-fill)" stroke="var(--_node-stroke)" stroke-width="0.75" />
<rect x="285.86250000000007" y="420" width="82.05000000000001" height="36" rx="6" ry="6" fill="var(--_node-fill)" stroke="var(--_node-stroke)" stroke-width="0.75" />
<rect x="109.69999999999999" y="116" width="103.5" height="36" rx="6" ry="6" fill="var(--_node-fill)" stroke="var(--_node-stroke)" stroke-width="0.75" />
<rect x="328.1" y="192" width="74.9" height="36" rx="6" ry="6" fill="var(--_node-fill)" stroke="var(--_node-stroke)" stroke-width="0.75" />
<rect x="237.2" y="116" width="96.35000000000001" height="36" rx="6" ry="6" fill="var(--_node-fill)" stroke="var(--_node-stroke)" stroke-width="0.75" />
<rect x="113.27499999999998" y="192" width="96.35000000000001" height="36" rx="6" ry="6" fill="var(--_node-fill)" stroke="var(--_node-stroke)" stroke-width="0.75" />
<rect x="123.99999999999999" y="268" width="74.9" height="36" rx="6" ry="6" fill="var(--_node-fill)" stroke="var(--_node-stroke)" stroke-width="0.75" />

<text x="239.8375" y="362" text-anchor="middle" dy="0.35em" font-size="13" font-weight="500" fill="var(--_text)">Desired</text>
<text x="272.075" y="58" text-anchor="middle" dy="0.35em" font-size="13" font-weight="500" fill="var(--_text)">Running</text>
<text x="210.11249999999998" y="438" text-anchor="middle" dy="0.35em" font-size="13" font-weight="500" fill="var(--_text)">Suppressed</text>
<text x="326.88750000000005" y="438" text-anchor="middle" dy="0.35em" font-size="13" font-weight="500" fill="var(--_text)">Blocked</text>
<text x="161.45" y="134" text-anchor="middle" dy="0.35em" font-size="13" font-weight="500" fill="var(--_text)">Committing</text>
<text x="365.55" y="210" text-anchor="middle" dy="0.35em" font-size="13" font-weight="500" fill="var(--_text)">Failed</text>
<text x="285.375" y="134" text-anchor="middle" dy="0.35em" font-size="13" font-weight="500" fill="var(--_text)">Cancelled</text>
<text x="161.45" y="210" text-anchor="middle" dy="0.35em" font-size="13" font-weight="500" fill="var(--_text)">Succeeded</text>
<text x="161.45" y="286" text-anchor="middle" dy="0.35em" font-size="13" font-weight="500" fill="var(--_text)">Cached</text>
</svg>